<?xml version="1.0" encoding="utf-8" standalone="no"?>
<!DOCTYPE svg PUBLIC "-//W3C//DTD SVG 1.1//EN"
  "http://www.w3.org/Graphics/SVG/1.1/DTD/svg11.dtd">
<svg height="720pt" version="1.1" viewBox="0 0 1152 720" width="1152pt" xmlns="http://www.w3.org/2000/svg" xmlns:xlink="http://www.w3.org/1999/xlink">
 <metadata>
  <rdf:RDF xmlns:cc="http://creativecommons.org/ns#" xmlns:dc="http://purl.org/dc/elements/1.1/" xmlns:rdf="http://www.w3.org/1999/02/22-rdf-syntax-ns#">
   <cc:Work>
    <dc:type rdf:resource="http://purl.org/dc/dcmitype/StillImage"/>
    <dc:date>2022-05-04T17:12:09.180793</dc:date>
    <dc:format>image/svg+xml</dc:format>
    <dc:creator>
     <cc:Agent>
      <dc:title>Matplotlib v3.4.3, https://matplotlib.org/</dc:title>
     </cc:Agent>
    </dc:creator>
   </cc:Work>
  </rdf:RDF>
 </metadata>
 <defs>
  <style type="text/css">*{stroke-linecap:butt;stroke-linejoin:round;}</style>
 </defs>
 <g id="figure_1">
  <g id="patch_1">
   <path d="M 0 720 
L 1152 720 
L 1152 0 
L 0 0 
z
" style="fill:#ffffff;"/>
  </g>
  <g id="axes_1">
   <g id="patch_2">
    <path d="M 144 640.8 
L 1036.8 640.8 
L 1036.8 86.4 
L 144 86.4 
z
" style="fill:#ffffff;"/>
   </g>
   <g id="matplotlib.axis_1">
    <g id="xtick_1">
     <g id="line2d_1">
      <path clip-path="url(#p7d681ac581)" d="M 144 640.8 
L 144 86.4 
" style="fill:none;stroke:#b0b0b0;stroke-linecap:square;stroke-width:0.8;"/>
     </g>
     <g id="line2d_2">
      <defs>
       <path d="M 0 0 
L 0 3.5 
" id="mc965572ede" style="stroke:#000000;stroke-width:0.8;"/>
      </defs>
      <g>
       <use style="stroke:#000000;stroke-width:0.8;" x="144" xlink:href="#mc965572ede" y="640.8"/>
      </g>
     </g>
     <g id="text_1">
      <!-- 0 -->
      <g transform="translate(140.81875 655.398438)scale(0.1 -0.1)">
       <defs>
        <path d="M 2034 4250 
Q 1547 4250 1301 3770 
Q 1056 3291 1056 2328 
Q 1056 1369 1301 889 
Q 1547 409 2034 409 
Q 2525 409 2770 889 
Q 3016 1369 3016 2328 
Q 3016 3291 2770 3770 
Q 2525 4250 2034 4250 
z
M 2034 4750 
Q 2819 4750 3233 4129 
Q 3647 3509 3647 2328 
Q 3647 1150 3233 529 
Q 2819 -91 2034 -91 
Q 1250 -91 836 529 
Q 422 1150 422 2328 
Q 422 3509 836 4129 
Q 1250 4750 2034 4750 
z
" id="DejaVuSans-30" transform="scale(0.015625)"/>
       </defs>
       <use xlink:href="#DejaVuSans-30"/>
      </g>
     </g>
    </g>
    <g id="xtick_2">
     <g id="line2d_3">
      <path clip-path="url(#p7d681ac581)" d="M 288.597133 640.8 
L 288.597133 86.4 
" style="fill:none;stroke:#b0b0b0;stroke-linecap:square;stroke-width:0.8;"/>
     </g>
     <g id="line2d_4">
      <g>
       <use style="stroke:#000000;stroke-width:0.8;" x="288.597133" xlink:href="#mc965572ede" y="640.8"/>
      </g>
     </g>
     <g id="text_2">
      <!-- 2000 -->
      <g transform="translate(275.872133 655.398438)scale(0.1 -0.1)">
       <defs>
        <path d="M 1228 531 
L 3431 531 
L 3431 0 
L 469 0 
L 469 531 
Q 828 903 1448 1529 
Q 2069 2156 2228 2338 
Q 2531 2678 2651 2914 
Q 2772 3150 2772 3378 
Q 2772 3750 2511 3984 
Q 2250 4219 1831 4219 
Q 1534 4219 1204 4116 
Q 875 4013 500 3803 
L 500 4441 
Q 881 4594 1212 4672 
Q 1544 4750 1819 4750 
Q 2544 4750 2975 4387 
Q 3406 4025 3406 3419 
Q 3406 3131 3298 2873 
Q 3191 2616 2906 2266 
Q 2828 2175 2409 1742 
Q 1991 1309 1228 531 
z
" id="DejaVuSans-32" transform="scale(0.015625)"/>
       </defs>
       <use xlink:href="#DejaVuSans-32"/>
       <use x="63.623047" xlink:href="#DejaVuSans-30"/>
       <use x="127.246094" xlink:href="#DejaVuSans-30"/>
       <use x="190.869141" xlink:href="#DejaVuSans-30"/>
      </g>
     </g>
    </g>
    <g id="xtick_3">
     <g id="line2d_5">
      <path clip-path="url(#p7d681ac581)" d="M 433.194266 640.8 
L 433.194266 86.4 
" style="fill:none;stroke:#b0b0b0;stroke-linecap:square;stroke-width:0.8;"/>
     </g>
     <g id="line2d_6">
      <g>
       <use style="stroke:#000000;stroke-width:0.8;" x="433.194266" xlink:href="#mc965572ede" y="640.8"/>
      </g>
     </g>
     <g id="text_3">
      <!-- 4000 -->
      <g transform="translate(420.469266 655.398438)scale(0.1 -0.1)">
       <defs>
        <path d="M 2419 4116 
L 825 1625 
L 2419 1625 
L 2419 4116 
z
M 2253 4666 
L 3047 4666 
L 3047 1625 
L 3713 1625 
L 3713 1100 
L 3047 1100 
L 3047 0 
L 2419 0 
L 2419 1100 
L 313 1100 
L 313 1709 
L 2253 4666 
z
" id="DejaVuSans-34" transform="scale(0.015625)"/>
       </defs>
       <use xlink:href="#DejaVuSans-34"/>
       <use x="63.623047" xlink:href="#DejaVuSans-30"/>
       <use x="127.246094" xlink:href="#DejaVuSans-30"/>
       <use x="190.869141" xlink:href="#DejaVuSans-30"/>
      </g>
     </g>
    </g>
    <g id="xtick_4">
     <g id="line2d_7">
      <path clip-path="url(#p7d681ac581)" d="M 577.791399 640.8 
L 577.791399 86.4 
" style="fill:none;stroke:#b0b0b0;stroke-linecap:square;stroke-width:0.8;"/>
     </g>
     <g id="line2d_8">
      <g>
       <use style="stroke:#000000;stroke-width:0.8;" x="577.791399" xlink:href="#mc965572ede" y="640.8"/>
      </g>
     </g>
     <g id="text_4">
      <!-- 6000 -->
      <g transform="translate(565.066399 655.398438)scale(0.1 -0.1)">
       <defs>
        <path d="M 2113 2584 
Q 1688 2584 1439 2293 
Q 1191 2003 1191 1497 
Q 1191 994 1439 701 
Q 1688 409 2113 409 
Q 2538 409 2786 701 
Q 3034 994 3034 1497 
Q 3034 2003 2786 2293 
Q 2538 2584 2113 2584 
z
M 3366 4563 
L 3366 3988 
Q 3128 4100 2886 4159 
Q 2644 4219 2406 4219 
Q 1781 4219 1451 3797 
Q 1122 3375 1075 2522 
Q 1259 2794 1537 2939 
Q 1816 3084 2150 3084 
Q 2853 3084 3261 2657 
Q 3669 2231 3669 1497 
Q 3669 778 3244 343 
Q 2819 -91 2113 -91 
Q 1303 -91 875 529 
Q 447 1150 447 2328 
Q 447 3434 972 4092 
Q 1497 4750 2381 4750 
Q 2619 4750 2861 4703 
Q 3103 4656 3366 4563 
z
" id="DejaVuSans-36" transform="scale(0.015625)"/>
       </defs>
       <use xlink:href="#DejaVuSans-36"/>
       <use x="63.623047" xlink:href="#DejaVuSans-30"/>
       <use x="127.246094" xlink:href="#DejaVuSans-30"/>
       <use x="190.869141" xlink:href="#DejaVuSans-30"/>
      </g>
     </g>
    </g>
    <g id="xtick_5">
     <g id="line2d_9">
      <path clip-path="url(#p7d681ac581)" d="M 722.388532 640.8 
L 722.388532 86.4 
" style="fill:none;stroke:#b0b0b0;stroke-linecap:square;stroke-width:0.8;"/>
     </g>
     <g id="line2d_10">
      <g>
       <use style="stroke:#000000;stroke-width:0.8;" x="722.388532" xlink:href="#mc965572ede" y="640.8"/>
      </g>
     </g>
     <g id="text_5">
      <!-- 8000 -->
      <g transform="translate(709.663532 655.398438)scale(0.1 -0.1)">
       <defs>
        <path d="M 2034 2216 
Q 1584 2216 1326 1975 
Q 1069 1734 1069 1313 
Q 1069 891 1326 650 
Q 1584 409 2034 409 
Q 2484 409 2743 651 
Q 3003 894 3003 1313 
Q 3003 1734 2745 1975 
Q 2488 2216 2034 2216 
z
M 1403 2484 
Q 997 2584 770 2862 
Q 544 3141 544 3541 
Q 544 4100 942 4425 
Q 1341 4750 2034 4750 
Q 2731 4750 3128 4425 
Q 3525 4100 3525 3541 
Q 3525 3141 3298 2862 
Q 3072 2584 2669 2484 
Q 3125 2378 3379 2068 
Q 3634 1759 3634 1313 
Q 3634 634 3220 271 
Q 2806 -91 2034 -91 
Q 1263 -91 848 271 
Q 434 634 434 1313 
Q 434 1759 690 2068 
Q 947 2378 1403 2484 
z
M 1172 3481 
Q 1172 3119 1398 2916 
Q 1625 2713 2034 2713 
Q 2441 2713 2670 2916 
Q 2900 3119 2900 3481 
Q 2900 3844 2670 4047 
Q 2441 4250 2034 4250 
Q 1625 4250 1398 4047 
Q 1172 3844 1172 3481 
z
" id="DejaVuSans-38" transform="scale(0.015625)"/>
       </defs>
       <use xlink:href="#DejaVuSans-38"/>
       <use x="63.623047" xlink:href="#DejaVuSans-30"/>
       <use x="127.246094" xlink:href="#DejaVuSans-30"/>
       <use x="190.869141" xlink:href="#DejaVuSans-30"/>
      </g>
     </g>
    </g>
    <g id="xtick_6">
     <g id="line2d_11">
      <path clip-path="url(#p7d681ac581)" d="M 866.985665 640.8 
L 866.985665 86.4 
" style="fill:none;stroke:#b0b0b0;stroke-linecap:square;stroke-width:0.8;"/>
     </g>
     <g id="line2d_12">
      <g>
       <use style="stroke:#000000;stroke-width:0.8;" x="866.985665" xlink:href="#mc965572ede" y="640.8"/>
      </g>
     </g>
     <g id="text_6">
      <!-- 10000 -->
      <g transform="translate(851.079415 655.398438)scale(0.1 -0.1)">
       <defs>
        <path d="M 794 531 
L 1825 531 
L 1825 4091 
L 703 3866 
L 703 4441 
L 1819 4666 
L 2450 4666 
L 2450 531 
L 3481 531 
L 3481 0 
L 794 0 
L 794 531 
z
" id="DejaVuSans-31" transform="scale(0.015625)"/>
       </defs>
       <use xlink:href="#DejaVuSans-31"/>
       <use x="63.623047" xlink:href="#DejaVuSans-30"/>
       <use x="127.246094" xlink:href="#DejaVuSans-30"/>
       <use x="190.869141" xlink:href="#DejaVuSans-30"/>
       <use x="254.492188" xlink:href="#DejaVuSans-30"/>
      </g>
     </g>
    </g>
    <g id="xtick_7">
     <g id="line2d_13">
      <path clip-path="url(#p7d681ac581)" d="M 1011.582798 640.8 
L 1011.582798 86.4 
" style="fill:none;stroke:#b0b0b0;stroke-linecap:square;stroke-width:0.8;"/>
     </g>
     <g id="line2d_14">
      <g>
       <use style="stroke:#000000;stroke-width:0.8;" x="1011.582798" xlink:href="#mc965572ede" y="640.8"/>
      </g>
     </g>
     <g id="text_7">
      <!-- 12000 -->
      <g transform="translate(995.676548 655.398438)scale(0.1 -0.1)">
       <use xlink:href="#DejaVuSans-31"/>
       <use x="63.623047" xlink:href="#DejaVuSans-32"/>
       <use x="127.246094" xlink:href="#DejaVuSans-30"/>
       <use x="190.869141" xlink:href="#DejaVuSans-30"/>
       <use x="254.492188" xlink:href="#DejaVuSans-30"/>
      </g>
     </g>
    </g>
    <g id="xtick_8">
     <g id="line2d_15">
      <path clip-path="url(#p7d681ac581)" d="M 180.149283 640.8 
L 180.149283 86.4 
" style="fill:none;stroke:#b0b0b0;stroke-dasharray:0.8,1.32;stroke-dashoffset:0;stroke-width:0.8;"/>
     </g>
     <g id="line2d_16">
      <defs>
       <path d="M 0 0 
L 0 2 
" id="mb60628b2ad" style="stroke:#000000;stroke-width:0.6;"/>
      </defs>
      <g>
       <use style="stroke:#000000;stroke-width:0.6;" x="180.149283" xlink:href="#mb60628b2ad" y="640.8"/>
      </g>
     </g>
    </g>
    <g id="xtick_9">
     <g id="line2d_17">
      <path clip-path="url(#p7d681ac581)" d="M 216.298567 640.8 
L 216.298567 86.4 
" style="fill:none;stroke:#b0b0b0;stroke-dasharray:0.8,1.32;stroke-dashoffset:0;stroke-width:0.8;"/>
     </g>
     <g id="line2d_18">
      <g>
       <use style="stroke:#000000;stroke-width:0.6;" x="216.298567" xlink:href="#mb60628b2ad" y="640.8"/>
      </g>
     </g>
    </g>
    <g id="xtick_10">
     <g id="line2d_19">
      <path clip-path="url(#p7d681ac581)" d="M 252.44785 640.8 
L 252.44785 86.4 
" style="fill:none;stroke:#b0b0b0;stroke-dasharray:0.8,1.32;stroke-dashoffset:0;stroke-width:0.8;"/>
     </g>
     <g id="line2d_20">
      <g>
       <use style="stroke:#000000;stroke-width:0.6;" x="252.44785" xlink:href="#mb60628b2ad" y="640.8"/>
      </g>
     </g>
    </g>
    <g id="xtick_11">
     <g id="line2d_21">
      <path clip-path="url(#p7d681ac581)" d="M 324.746416 640.8 
L 324.746416 86.4 
" style="fill:none;stroke:#b0b0b0;stroke-dasharray:0.8,1.32;stroke-dashoffset:0;stroke-width:0.8;"/>
     </g>
     <g id="line2d_22">
      <g>
       <use style="stroke:#000000;stroke-width:0.6;" x="324.746416" xlink:href="#mb60628b2ad" y="640.8"/>
      </g>
     </g>
    </g>
    <g id="xtick_12">
     <g id="line2d_23">
      <path clip-path="url(#p7d681ac581)" d="M 360.8957 640.8 
L 360.8957 86.4 
" style="fill:none;stroke:#b0b0b0;stroke-dasharray:0.8,1.32;stroke-dashoffset:0;stroke-width:0.8;"/>
     </g>
     <g id="line2d_24">
      <g>
       <use style="stroke:#000000;stroke-width:0.6;" x="360.8957" xlink:href="#mb60628b2ad" y="640.8"/>
      </g>
     </g>
    </g>
    <g id="xtick_13">
     <g id="line2d_25">
      <path clip-path="url(#p7d681ac581)" d="M 397.044983 640.8 
L 397.044983 86.4 
" style="fill:none;stroke:#b0b0b0;stroke-dasharray:0.8,1.32;stroke-dashoffset:0;stroke-width:0.8;"/>
     </g>
     <g id="line2d_26">
      <g>
       <use style="stroke:#000000;stroke-width:0.6;" x="397.044983" xlink:href="#mb60628b2ad" y="640.8"/>
      </g>
     </g>
    </g>
    <g id="xtick_14">
     <g id="line2d_27">
      <path clip-path="url(#p7d681ac581)" d="M 469.343549 640.8 
L 469.343549 86.4 
" style="fill:none;stroke:#b0b0b0;stroke-dasharray:0.8,1.32;stroke-dashoffset:0;stroke-width:0.8;"/>
     </g>
     <g id="line2d_28">
      <g>
       <use style="stroke:#000000;stroke-width:0.6;" x="469.343549" xlink:href="#mb60628b2ad" y="640.8"/>
      </g>
     </g>
    </g>
    <g id="xtick_15">
     <g id="line2d_29">
      <path clip-path="url(#p7d681ac581)" d="M 505.492833 640.8 
L 505.492833 86.4 
" style="fill:none;stroke:#b0b0b0;stroke-dasharray:0.8,1.32;stroke-dashoffset:0;stroke-width:0.8;"/>
     </g>
     <g id="line2d_30">
      <g>
       <use style="stroke:#000000;stroke-width:0.6;" x="505.492833" xlink:href="#mb60628b2ad" y="640.8"/>
      </g>
     </g>
    </g>
    <g id="xtick_16">
     <g id="line2d_31">
      <path clip-path="url(#p7d681ac581)" d="M 541.642116 640.8 
L 541.642116 86.4 
" style="fill:none;stroke:#b0b0b0;stroke-dasharray:0.8,1.32;stroke-dashoffset:0;stroke-width:0.8;"/>
     </g>
     <g id="line2d_32">
      <g>
       <use style="stroke:#000000;stroke-width:0.6;" x="541.642116" xlink:href="#mb60628b2ad" y="640.8"/>
      </g>
     </g>
    </g>
    <g id="xtick_17">
     <g id="line2d_33">
      <path clip-path="url(#p7d681ac581)" d="M 613.940682 640.8 
L 613.940682 86.4 
" style="fill:none;stroke:#b0b0b0;stroke-dasharray:0.8,1.32;stroke-dashoffset:0;stroke-width:0.8;"/>
     </g>
     <g id="line2d_34">
      <g>
       <use style="stroke:#000000;stroke-width:0.6;" x="613.940682" xlink:href="#mb60628b2ad" y="640.8"/>
      </g>
     </g>
    </g>
    <g id="xtick_18">
     <g id="line2d_35">
      <path clip-path="url(#p7d681ac581)" d="M 650.089966 640.8 
L 650.089966 86.4 
" style="fill:none;stroke:#b0b0b0;stroke-dasharray:0.8,1.32;stroke-dashoffset:0;stroke-width:0.8;"/>
     </g>
     <g id="line2d_36">
      <g>
       <use style="stroke:#000000;stroke-width:0.6;" x="650.089966" xlink:href="#mb60628b2ad" y="640.8"/>
      </g>
     </g>
    </g>
    <g id="xtick_19">
     <g id="line2d_37">
      <path clip-path="url(#p7d681ac581)" d="M 686.239249 640.8 
L 686.239249 86.4 
" style="fill:none;stroke:#b0b0b0;stroke-dasharray:0.8,1.32;stroke-dashoffset:0;stroke-width:0.8;"/>
     </g>
     <g id="line2d_38">
      <g>
       <use style="stroke:#000000;stroke-width:0.6;" x="686.239249" xlink:href="#mb60628b2ad" y="640.8"/>
      </g>
     </g>
    </g>
    <g id="xtick_20">
     <g id="line2d_39">
      <path clip-path="url(#p7d681ac581)" d="M 758.537815 640.8 
L 758.537815 86.4 
" style="fill:none;stroke:#b0b0b0;stroke-dasharray:0.8,1.32;stroke-dashoffset:0;stroke-width:0.8;"/>
     </g>
     <g id="line2d_40">
      <g>
       <use style="stroke:#000000;stroke-width:0.6;" x="758.537815" xlink:href="#mb60628b2ad" y="640.8"/>
      </g>
     </g>
    </g>
    <g id="xtick_21">
     <g id="line2d_41">
      <path clip-path="url(#p7d681ac581)" d="M 794.687099 640.8 
L 794.687099 86.4 
" style="fill:none;stroke:#b0b0b0;stroke-dasharray:0.8,1.32;stroke-dashoffset:0;stroke-width:0.8;"/>
     </g>
     <g id="line2d_42">
      <g>
       <use style="stroke:#000000;stroke-width:0.6;" x="794.687099" xlink:href="#mb60628b2ad" y="640.8"/>
      </g>
     </g>
    </g>
    <g id="xtick_22">
     <g id="line2d_43">
      <path clip-path="url(#p7d681ac581)" d="M 830.836382 640.8 
L 830.836382 86.4 
" style="fill:none;stroke:#b0b0b0;stroke-dasharray:0.8,1.32;stroke-dashoffset:0;stroke-width:0.8;"/>
     </g>
     <g id="line2d_44">
      <g>
       <use style="stroke:#000000;stroke-width:0.6;" x="830.836382" xlink:href="#mb60628b2ad" y="640.8"/>
      </g>
     </g>
    </g>
    <g id="xtick_23">
     <g id="line2d_45">
      <path clip-path="url(#p7d681ac581)" d="M 903.134948 640.8 
L 903.134948 86.4 
" style="fill:none;stroke:#b0b0b0;stroke-dasharray:0.8,1.32;stroke-dashoffset:0;stroke-width:0.8;"/>
     </g>
     <g id="line2d_46">
      <g>
       <use style="stroke:#000000;stroke-width:0.6;" x="903.134948" xlink:href="#mb60628b2ad" y="640.8"/>
      </g>
     </g>
    </g>
    <g id="xtick_24">
     <g id="line2d_47">
      <path clip-path="url(#p7d681ac581)" d="M 939.284232 640.8 
L 939.284232 86.4 
" style="fill:none;stroke:#b0b0b0;stroke-dasharray:0.8,1.32;stroke-dashoffset:0;stroke-width:0.8;"/>
     </g>
     <g id="line2d_48">
      <g>
       <use style="stroke:#000000;stroke-width:0.6;" x="939.284232" xlink:href="#mb60628b2ad" y="640.8"/>
      </g>
     </g>
    </g>
    <g id="xtick_25">
     <g id="line2d_49">
      <path clip-path="url(#p7d681ac581)" d="M 975.433515 640.8 
L 975.433515 86.4 
" style="fill:none;stroke:#b0b0b0;stroke-dasharray:0.8,1.32;stroke-dashoffset:0;stroke-width:0.8;"/>
     </g>
     <g id="line2d_50">
      <g>
       <use style="stroke:#000000;stroke-width:0.6;" x="975.433515" xlink:href="#mb60628b2ad" y="640.8"/>
      </g>
     </g>
    </g>
    <g id="text_8">
     <!-- Время t, с -->
     <g transform="translate(564.4625 669.076563)scale(0.1 -0.1)">
      <defs>
       <path d="M 1259 2228 
L 1259 519 
L 2272 519 
Q 2781 519 3026 730 
Q 3272 941 3272 1375 
Q 3272 1813 3026 2020 
Q 2781 2228 2272 2228 
L 1259 2228 
z
M 1259 4147 
L 1259 2741 
L 2194 2741 
Q 2656 2741 2882 2914 
Q 3109 3088 3109 3444 
Q 3109 3797 2882 3972 
Q 2656 4147 2194 4147 
L 1259 4147 
z
M 628 4666 
L 2241 4666 
Q 2963 4666 3353 4366 
Q 3744 4066 3744 3513 
Q 3744 3084 3544 2831 
Q 3344 2578 2956 2516 
Q 3422 2416 3680 2098 
Q 3938 1781 3938 1306 
Q 3938 681 3513 340 
Q 3088 0 2303 0 
L 628 0 
L 628 4666 
z
" id="DejaVuSans-412" transform="scale(0.015625)"/>
       <path d="M 1159 525 
L 1159 -1331 
L 581 -1331 
L 581 3500 
L 1159 3500 
L 1159 2969 
Q 1341 3281 1617 3432 
Q 1894 3584 2278 3584 
Q 2916 3584 3314 3078 
Q 3713 2572 3713 1747 
Q 3713 922 3314 415 
Q 2916 -91 2278 -91 
Q 1894 -91 1617 61 
Q 1341 213 1159 525 
z
M 3116 1747 
Q 3116 2381 2855 2742 
Q 2594 3103 2138 3103 
Q 1681 3103 1420 2742 
Q 1159 2381 1159 1747 
Q 1159 1113 1420 752 
Q 1681 391 2138 391 
Q 2594 391 2855 752 
Q 3116 1113 3116 1747 
z
" id="DejaVuSans-440" transform="scale(0.015625)"/>
       <path d="M 3597 1894 
L 3597 1613 
L 953 1613 
Q 991 1019 1311 708 
Q 1631 397 2203 397 
Q 2534 397 2845 478 
Q 3156 559 3463 722 
L 3463 178 
Q 3153 47 2828 -22 
Q 2503 -91 2169 -91 
Q 1331 -91 842 396 
Q 353 884 353 1716 
Q 353 2575 817 3079 
Q 1281 3584 2069 3584 
Q 2775 3584 3186 3129 
Q 3597 2675 3597 1894 
z
M 3022 2063 
Q 3016 2534 2758 2815 
Q 2500 3097 2075 3097 
Q 1594 3097 1305 2825 
Q 1016 2553 972 2059 
L 3022 2063 
z
" id="DejaVuSans-435" transform="scale(0.015625)"/>
       <path d="M 581 3500 
L 1422 3500 
L 2416 1156 
L 3413 3500 
L 4247 3500 
L 4247 0 
L 3669 0 
L 3669 2950 
L 2703 672 
L 2128 672 
L 1159 2950 
L 1159 0 
L 581 0 
L 581 3500 
z
" id="DejaVuSans-43c" transform="scale(0.015625)"/>
       <path d="M 1181 2491 
Q 1181 2231 1381 2084 
Q 1581 1938 1953 1938 
L 2728 1938 
L 2728 3041 
L 1953 3041 
Q 1581 3041 1381 2897 
Q 1181 2753 1181 2491 
z
M 363 0 
L 1431 1534 
Q 1069 1616 828 1830 
Q 588 2044 588 2491 
Q 588 2997 923 3248 
Q 1259 3500 1938 3500 
L 3306 3500 
L 3306 0 
L 2728 0 
L 2728 1478 
L 2013 1478 
L 981 0 
L 363 0 
z
" id="DejaVuSans-44f" transform="scale(0.015625)"/>
       <path id="DejaVuSans-20" transform="scale(0.015625)"/>
       <path d="M 1172 4494 
L 1172 3500 
L 2356 3500 
L 2356 3053 
L 1172 3053 
L 1172 1153 
Q 1172 725 1289 603 
Q 1406 481 1766 481 
L 2356 481 
L 2356 0 
L 1766 0 
Q 1100 0 847 248 
Q 594 497 594 1153 
L 594 3053 
L 172 3053 
L 172 3500 
L 594 3500 
L 594 4494 
L 1172 4494 
z
" id="DejaVuSans-74" transform="scale(0.015625)"/>
       <path d="M 750 794 
L 1409 794 
L 1409 256 
L 897 -744 
L 494 -744 
L 750 256 
L 750 794 
z
" id="DejaVuSans-2c" transform="scale(0.015625)"/>
       <path d="M 3122 3366 
L 3122 2828 
Q 2878 2963 2633 3030 
Q 2388 3097 2138 3097 
Q 1578 3097 1268 2742 
Q 959 2388 959 1747 
Q 959 1106 1268 751 
Q 1578 397 2138 397 
Q 2388 397 2633 464 
Q 2878 531 3122 666 
L 3122 134 
Q 2881 22 2623 -34 
Q 2366 -91 2075 -91 
Q 1284 -91 818 406 
Q 353 903 353 1747 
Q 353 2603 823 3093 
Q 1294 3584 2113 3584 
Q 2378 3584 2631 3529 
Q 2884 3475 3122 3366 
z
" id="DejaVuSans-441" transform="scale(0.015625)"/>
      </defs>
      <use xlink:href="#DejaVuSans-412"/>
      <use x="68.603516" xlink:href="#DejaVuSans-440"/>
      <use x="132.080078" xlink:href="#DejaVuSans-435"/>
      <use x="193.603516" xlink:href="#DejaVuSans-43c"/>
      <use x="269.042969" xlink:href="#DejaVuSans-44f"/>
      <use x="329.199219" xlink:href="#DejaVuSans-20"/>
      <use x="360.986328" xlink:href="#DejaVuSans-74"/>
      <use x="400.195312" xlink:href="#DejaVuSans-2c"/>
      <use x="431.982422" xlink:href="#DejaVuSans-20"/>
      <use x="463.769531" xlink:href="#DejaVuSans-441"/>
     </g>
    </g>
   </g>
   <g id="matplotlib.axis_2">
    <g id="ytick_1">
     <g id="line2d_51">
      <path clip-path="url(#p7d681ac581)" d="M 144 640.8 
L 1036.8 640.8 
" style="fill:none;stroke:#b0b0b0;stroke-linecap:square;stroke-width:0.8;"/>
     </g>
     <g id="line2d_52">
      <defs>
       <path d="M 0 0 
L -3.5 0 
" id="m48cb11b20f" style="stroke:#000000;stroke-width:0.8;"/>
      </defs>
      <g>
       <use style="stroke:#000000;stroke-width:0.8;" x="144" xlink:href="#m48cb11b20f" y="640.8"/>
      </g>
     </g>
     <g id="text_9">
      <!-- 0.0 -->
      <g transform="translate(121.096875 644.599219)scale(0.1 -0.1)">
       <defs>
        <path d="M 684 794 
L 1344 794 
L 1344 0 
L 684 0 
L 684 794 
z
" id="DejaVuSans-2e" transform="scale(0.015625)"/>
       </defs>
       <use xlink:href="#DejaVuSans-30"/>
       <use x="63.623047" xlink:href="#DejaVuSans-2e"/>
       <use x="95.410156" xlink:href="#DejaVuSans-30"/>
      </g>
     </g>
    </g>
    <g id="ytick_2">
     <g id="line2d_53">
      <path clip-path="url(#p7d681ac581)" d="M 144 561.973021 
L 1036.8 561.973021 
" style="fill:none;stroke:#b0b0b0;stroke-linecap:square;stroke-width:0.8;"/>
     </g>
     <g id="line2d_54">
      <g>
       <use style="stroke:#000000;stroke-width:0.8;" x="144" xlink:href="#m48cb11b20f" y="561.973021"/>
      </g>
     </g>
     <g id="text_10">
      <!-- 0.5 -->
      <g transform="translate(121.096875 565.772239)scale(0.1 -0.1)">
       <defs>
        <path d="M 691 4666 
L 3169 4666 
L 3169 4134 
L 1269 4134 
L 1269 2991 
Q 1406 3038 1543 3061 
Q 1681 3084 1819 3084 
Q 2600 3084 3056 2656 
Q 3513 2228 3513 1497 
Q 3513 744 3044 326 
Q 2575 -91 1722 -91 
Q 1428 -91 1123 -41 
Q 819 9 494 109 
L 494 744 
Q 775 591 1075 516 
Q 1375 441 1709 441 
Q 2250 441 2565 725 
Q 2881 1009 2881 1497 
Q 2881 1984 2565 2268 
Q 2250 2553 1709 2553 
Q 1456 2553 1204 2497 
Q 953 2441 691 2322 
L 691 4666 
z
" id="DejaVuSans-35" transform="scale(0.015625)"/>
       </defs>
       <use xlink:href="#DejaVuSans-30"/>
       <use x="63.623047" xlink:href="#DejaVuSans-2e"/>
       <use x="95.410156" xlink:href="#DejaVuSans-35"/>
      </g>
     </g>
    </g>
    <g id="ytick_3">
     <g id="line2d_55">
      <path clip-path="url(#p7d681ac581)" d="M 144 483.146041 
L 1036.8 483.146041 
" style="fill:none;stroke:#b0b0b0;stroke-linecap:square;stroke-width:0.8;"/>
     </g>
     <g id="line2d_56">
      <g>
       <use style="stroke:#000000;stroke-width:0.8;" x="144" xlink:href="#m48cb11b20f" y="483.146041"/>
      </g>
     </g>
     <g id="text_11">
      <!-- 1.0 -->
      <g transform="translate(121.096875 486.94526)scale(0.1 -0.1)">
       <use xlink:href="#DejaVuSans-31"/>
       <use x="63.623047" xlink:href="#DejaVuSans-2e"/>
       <use x="95.410156" xlink:href="#DejaVuSans-30"/>
      </g>
     </g>
    </g>
    <g id="ytick_4">
     <g id="line2d_57">
      <path clip-path="url(#p7d681ac581)" d="M 144 404.319062 
L 1036.8 404.319062 
" style="fill:none;stroke:#b0b0b0;stroke-linecap:square;stroke-width:0.8;"/>
     </g>
     <g id="line2d_58">
      <g>
       <use style="stroke:#000000;stroke-width:0.8;" x="144" xlink:href="#m48cb11b20f" y="404.319062"/>
      </g>
     </g>
     <g id="text_12">
      <!-- 1.5 -->
      <g transform="translate(121.096875 408.11828)scale(0.1 -0.1)">
       <use xlink:href="#DejaVuSans-31"/>
       <use x="63.623047" xlink:href="#DejaVuSans-2e"/>
       <use x="95.410156" xlink:href="#DejaVuSans-35"/>
      </g>
     </g>
    </g>
    <g id="ytick_5">
     <g id="line2d_59">
      <path clip-path="url(#p7d681ac581)" d="M 144 325.492082 
L 1036.8 325.492082 
" style="fill:none;stroke:#b0b0b0;stroke-linecap:square;stroke-width:0.8;"/>
     </g>
     <g id="line2d_60">
      <g>
       <use style="stroke:#000000;stroke-width:0.8;" x="144" xlink:href="#m48cb11b20f" y="325.492082"/>
      </g>
     </g>
     <g id="text_13">
      <!-- 2.0 -->
      <g transform="translate(121.096875 329.291301)scale(0.1 -0.1)">
       <use xlink:href="#DejaVuSans-32"/>
       <use x="63.623047" xlink:href="#DejaVuSans-2e"/>
       <use x="95.410156" xlink:href="#DejaVuSans-30"/>
      </g>
     </g>
    </g>
    <g id="ytick_6">
     <g id="line2d_61">
      <path clip-path="url(#p7d681ac581)" d="M 144 246.665103 
L 1036.8 246.665103 
" style="fill:none;stroke:#b0b0b0;stroke-linecap:square;stroke-width:0.8;"/>
     </g>
     <g id="line2d_62">
      <g>
       <use style="stroke:#000000;stroke-width:0.8;" x="144" xlink:href="#m48cb11b20f" y="246.665103"/>
      </g>
     </g>
     <g id="text_14">
      <!-- 2.5 -->
      <g transform="translate(121.096875 250.464321)scale(0.1 -0.1)">
       <use xlink:href="#DejaVuSans-32"/>
       <use x="63.623047" xlink:href="#DejaVuSans-2e"/>
       <use x="95.410156" xlink:href="#DejaVuSans-35"/>
      </g>
     </g>
    </g>
    <g id="ytick_7">
     <g id="line2d_63">
      <path clip-path="url(#p7d681ac581)" d="M 144 167.838123 
L 1036.8 167.838123 
" style="fill:none;stroke:#b0b0b0;stroke-linecap:square;stroke-width:0.8;"/>
     </g>
     <g id="line2d_64">
      <g>
       <use style="stroke:#000000;stroke-width:0.8;" x="144" xlink:href="#m48cb11b20f" y="167.838123"/>
      </g>
     </g>
     <g id="text_15">
      <!-- 3.0 -->
      <g transform="translate(121.096875 171.637342)scale(0.1 -0.1)">
       <defs>
        <path d="M 2597 2516 
Q 3050 2419 3304 2112 
Q 3559 1806 3559 1356 
Q 3559 666 3084 287 
Q 2609 -91 1734 -91 
Q 1441 -91 1130 -33 
Q 819 25 488 141 
L 488 750 
Q 750 597 1062 519 
Q 1375 441 1716 441 
Q 2309 441 2620 675 
Q 2931 909 2931 1356 
Q 2931 1769 2642 2001 
Q 2353 2234 1838 2234 
L 1294 2234 
L 1294 2753 
L 1863 2753 
Q 2328 2753 2575 2939 
Q 2822 3125 2822 3475 
Q 2822 3834 2567 4026 
Q 2313 4219 1838 4219 
Q 1578 4219 1281 4162 
Q 984 4106 628 3988 
L 628 4550 
Q 988 4650 1302 4700 
Q 1616 4750 1894 4750 
Q 2613 4750 3031 4423 
Q 3450 4097 3450 3541 
Q 3450 3153 3228 2886 
Q 3006 2619 2597 2516 
z
" id="DejaVuSans-33" transform="scale(0.015625)"/>
       </defs>
       <use xlink:href="#DejaVuSans-33"/>
       <use x="63.623047" xlink:href="#DejaVuSans-2e"/>
       <use x="95.410156" xlink:href="#DejaVuSans-30"/>
      </g>
     </g>
    </g>
    <g id="ytick_8">
     <g id="line2d_65">
      <path clip-path="url(#p7d681ac581)" d="M 144 89.011144 
L 1036.8 89.011144 
" style="fill:none;stroke:#b0b0b0;stroke-linecap:square;stroke-width:0.8;"/>
     </g>
     <g id="line2d_66">
      <g>
       <use style="stroke:#000000;stroke-width:0.8;" x="144" xlink:href="#m48cb11b20f" y="89.011144"/>
      </g>
     </g>
     <g id="text_16">
      <!-- 3.5 -->
      <g transform="translate(121.096875 92.810362)scale(0.1 -0.1)">
       <use xlink:href="#DejaVuSans-33"/>
       <use x="63.623047" xlink:href="#DejaVuSans-2e"/>
       <use x="95.410156" xlink:href="#DejaVuSans-35"/>
      </g>
     </g>
    </g>
    <g id="ytick_9">
     <g id="line2d_67">
      <path clip-path="url(#p7d681ac581)" d="M 144 625.034604 
L 1036.8 625.034604 
" style="fill:none;stroke:#b0b0b0;stroke-dasharray:0.8,1.32;stroke-dashoffset:0;stroke-width:0.8;"/>
     </g>
     <g id="line2d_68">
      <defs>
       <path d="M 0 0 
L -2 0 
" id="m72702d2210" style="stroke:#000000;stroke-width:0.6;"/>
      </defs>
      <g>
       <use style="stroke:#000000;stroke-width:0.6;" x="144" xlink:href="#m72702d2210" y="625.034604"/>
      </g>
     </g>
    </g>
    <g id="ytick_10">
     <g id="line2d_69">
      <path clip-path="url(#p7d681ac581)" d="M 144 609.269208 
L 1036.8 609.269208 
" style="fill:none;stroke:#b0b0b0;stroke-dasharray:0.8,1.32;stroke-dashoffset:0;stroke-width:0.8;"/>
     </g>
     <g id="line2d_70">
      <g>
       <use style="stroke:#000000;stroke-width:0.6;" x="144" xlink:href="#m72702d2210" y="609.269208"/>
      </g>
     </g>
    </g>
    <g id="ytick_11">
     <g id="line2d_71">
      <path clip-path="url(#p7d681ac581)" d="M 144 593.503812 
L 1036.8 593.503812 
" style="fill:none;stroke:#b0b0b0;stroke-dasharray:0.8,1.32;stroke-dashoffset:0;stroke-width:0.8;"/>
     </g>
     <g id="line2d_72">
      <g>
       <use style="stroke:#000000;stroke-width:0.6;" x="144" xlink:href="#m72702d2210" y="593.503812"/>
      </g>
     </g>
    </g>
    <g id="ytick_12">
     <g id="line2d_73">
      <path clip-path="url(#p7d681ac581)" d="M 144 577.738416 
L 1036.8 577.738416 
" style="fill:none;stroke:#b0b0b0;stroke-dasharray:0.8,1.32;stroke-dashoffset:0;stroke-width:0.8;"/>
     </g>
     <g id="line2d_74">
      <g>
       <use style="stroke:#000000;stroke-width:0.6;" x="144" xlink:href="#m72702d2210" y="577.738416"/>
      </g>
     </g>
    </g>
    <g id="ytick_13">
     <g id="line2d_75">
      <path clip-path="url(#p7d681ac581)" d="M 144 546.207625 
L 1036.8 546.207625 
" style="fill:none;stroke:#b0b0b0;stroke-dasharray:0.8,1.32;stroke-dashoffset:0;stroke-width:0.8;"/>
     </g>
     <g id="line2d_76">
      <g>
       <use style="stroke:#000000;stroke-width:0.6;" x="144" xlink:href="#m72702d2210" y="546.207625"/>
      </g>
     </g>
    </g>
    <g id="ytick_14">
     <g id="line2d_77">
      <path clip-path="url(#p7d681ac581)" d="M 144 530.442229 
L 1036.8 530.442229 
" style="fill:none;stroke:#b0b0b0;stroke-dasharray:0.8,1.32;stroke-dashoffset:0;stroke-width:0.8;"/>
     </g>
     <g id="line2d_78">
      <g>
       <use style="stroke:#000000;stroke-width:0.6;" x="144" xlink:href="#m72702d2210" y="530.442229"/>
      </g>
     </g>
    </g>
    <g id="ytick_15">
     <g id="line2d_79">
      <path clip-path="url(#p7d681ac581)" d="M 144 514.676833 
L 1036.8 514.676833 
" style="fill:none;stroke:#b0b0b0;stroke-dasharray:0.8,1.32;stroke-dashoffset:0;stroke-width:0.8;"/>
     </g>
     <g id="line2d_80">
      <g>
       <use style="stroke:#000000;stroke-width:0.6;" x="144" xlink:href="#m72702d2210" y="514.676833"/>
      </g>
     </g>
    </g>
    <g id="ytick_16">
     <g id="line2d_81">
      <path clip-path="url(#p7d681ac581)" d="M 144 498.911437 
L 1036.8 498.911437 
" style="fill:none;stroke:#b0b0b0;stroke-dasharray:0.8,1.32;stroke-dashoffset:0;stroke-width:0.8;"/>
     </g>
     <g id="line2d_82">
      <g>
       <use style="stroke:#000000;stroke-width:0.6;" x="144" xlink:href="#m72702d2210" y="498.911437"/>
      </g>
     </g>
    </g>
    <g id="ytick_17">
     <g id="line2d_83">
      <path clip-path="url(#p7d681ac581)" d="M 144 467.380645 
L 1036.8 467.380645 
" style="fill:none;stroke:#b0b0b0;stroke-dasharray:0.8,1.32;stroke-dashoffset:0;stroke-width:0.8;"/>
     </g>
     <g id="line2d_84">
      <g>
       <use style="stroke:#000000;stroke-width:0.6;" x="144" xlink:href="#m72702d2210" y="467.380645"/>
      </g>
     </g>
    </g>
    <g id="ytick_18">
     <g id="line2d_85">
      <path clip-path="url(#p7d681ac581)" d="M 144 451.615249 
L 1036.8 451.615249 
" style="fill:none;stroke:#b0b0b0;stroke-dasharray:0.8,1.32;stroke-dashoffset:0;stroke-width:0.8;"/>
     </g>
     <g id="line2d_86">
      <g>
       <use style="stroke:#000000;stroke-width:0.6;" x="144" xlink:href="#m72702d2210" y="451.615249"/>
      </g>
     </g>
    </g>
    <g id="ytick_19">
     <g id="line2d_87">
      <path clip-path="url(#p7d681ac581)" d="M 144 435.849853 
L 1036.8 435.849853 
" style="fill:none;stroke:#b0b0b0;stroke-dasharray:0.8,1.32;stroke-dashoffset:0;stroke-width:0.8;"/>
     </g>
     <g id="line2d_88">
      <g>
       <use style="stroke:#000000;stroke-width:0.6;" x="144" xlink:href="#m72702d2210" y="435.849853"/>
      </g>
     </g>
    </g>
    <g id="ytick_20">
     <g id="line2d_89">
      <path clip-path="url(#p7d681ac581)" d="M 144 420.084457 
L 1036.8 420.084457 
" style="fill:none;stroke:#b0b0b0;stroke-dasharray:0.8,1.32;stroke-dashoffset:0;stroke-width:0.8;"/>
     </g>
     <g id="line2d_90">
      <g>
       <use style="stroke:#000000;stroke-width:0.6;" x="144" xlink:href="#m72702d2210" y="420.084457"/>
      </g>
     </g>
    </g>
    <g id="ytick_21">
     <g id="line2d_91">
      <path clip-path="url(#p7d681ac581)" d="M 144 388.553666 
L 1036.8 388.553666 
" style="fill:none;stroke:#b0b0b0;stroke-dasharray:0.8,1.32;stroke-dashoffset:0;stroke-width:0.8;"/>
     </g>
     <g id="line2d_92">
      <g>
       <use style="stroke:#000000;stroke-width:0.6;" x="144" xlink:href="#m72702d2210" y="388.553666"/>
      </g>
     </g>
    </g>
    <g id="ytick_22">
     <g id="line2d_93">
      <path clip-path="url(#p7d681ac581)" d="M 144 372.78827 
L 1036.8 372.78827 
" style="fill:none;stroke:#b0b0b0;stroke-dasharray:0.8,1.32;stroke-dashoffset:0;stroke-width:0.8;"/>
     </g>
     <g id="line2d_94">
      <g>
       <use style="stroke:#000000;stroke-width:0.6;" x="144" xlink:href="#m72702d2210" y="372.78827"/>
      </g>
     </g>
    </g>
    <g id="ytick_23">
     <g id="line2d_95">
      <path clip-path="url(#p7d681ac581)" d="M 144 357.022874 
L 1036.8 357.022874 
" style="fill:none;stroke:#b0b0b0;stroke-dasharray:0.8,1.32;stroke-dashoffset:0;stroke-width:0.8;"/>
     </g>
     <g id="line2d_96">
      <g>
       <use style="stroke:#000000;stroke-width:0.6;" x="144" xlink:href="#m72702d2210" y="357.022874"/>
      </g>
     </g>
    </g>
    <g id="ytick_24">
     <g id="line2d_97">
      <path clip-path="url(#p7d681ac581)" d="M 144 341.257478 
L 1036.8 341.257478 
" style="fill:none;stroke:#b0b0b0;stroke-dasharray:0.8,1.32;stroke-dashoffset:0;stroke-width:0.8;"/>
     </g>
     <g id="line2d_98">
      <g>
       <use style="stroke:#000000;stroke-width:0.6;" x="144" xlink:href="#m72702d2210" y="341.257478"/>
      </g>
     </g>
    </g>
    <g id="ytick_25">
     <g id="line2d_99">
      <path clip-path="url(#p7d681ac581)" d="M 144 309.726686 
L 1036.8 309.726686 
" style="fill:none;stroke:#b0b0b0;stroke-dasharray:0.8,1.32;stroke-dashoffset:0;stroke-width:0.8;"/>
     </g>
     <g id="line2d_100">
      <g>
       <use style="stroke:#000000;stroke-width:0.6;" x="144" xlink:href="#m72702d2210" y="309.726686"/>
      </g>
     </g>
    </g>
    <g id="ytick_26">
     <g id="line2d_101">
      <path clip-path="url(#p7d681ac581)" d="M 144 293.96129 
L 1036.8 293.96129 
" style="fill:none;stroke:#b0b0b0;stroke-dasharray:0.8,1.32;stroke-dashoffset:0;stroke-width:0.8;"/>
     </g>
     <g id="line2d_102">
      <g>
       <use style="stroke:#000000;stroke-width:0.6;" x="144" xlink:href="#m72702d2210" y="293.96129"/>
      </g>
     </g>
    </g>
    <g id="ytick_27">
     <g id="line2d_103">
      <path clip-path="url(#p7d681ac581)" d="M 144 278.195894 
L 1036.8 278.195894 
" style="fill:none;stroke:#b0b0b0;stroke-dasharray:0.8,1.32;stroke-dashoffset:0;stroke-width:0.8;"/>
     </g>
     <g id="line2d_104">
      <g>
       <use style="stroke:#000000;stroke-width:0.6;" x="144" xlink:href="#m72702d2210" y="278.195894"/>
      </g>
     </g>
    </g>
    <g id="ytick_28">
     <g id="line2d_105">
      <path clip-path="url(#p7d681ac581)" d="M 144 262.430499 
L 1036.8 262.430499 
" style="fill:none;stroke:#b0b0b0;stroke-dasharray:0.8,1.32;stroke-dashoffset:0;stroke-width:0.8;"/>
     </g>
     <g id="line2d_106">
      <g>
       <use style="stroke:#000000;stroke-width:0.6;" x="144" xlink:href="#m72702d2210" y="262.430499"/>
      </g>
     </g>
    </g>
    <g id="ytick_29">
     <g id="line2d_107">
      <path clip-path="url(#p7d681ac581)" d="M 144 230.899707 
L 1036.8 230.899707 
" style="fill:none;stroke:#b0b0b0;stroke-dasharray:0.8,1.32;stroke-dashoffset:0;stroke-width:0.8;"/>
     </g>
     <g id="line2d_108">
      <g>
       <use style="stroke:#000000;stroke-width:0.6;" x="144" xlink:href="#m72702d2210" y="230.899707"/>
      </g>
     </g>
    </g>
    <g id="ytick_30">
     <g id="line2d_109">
      <path clip-path="url(#p7d681ac581)" d="M 144 215.134311 
L 1036.8 215.134311 
" style="fill:none;stroke:#b0b0b0;stroke-dasharray:0.8,1.32;stroke-dashoffset:0;stroke-width:0.8;"/>
     </g>
     <g id="line2d_110">
      <g>
       <use style="stroke:#000000;stroke-width:0.6;" x="144" xlink:href="#m72702d2210" y="215.134311"/>
      </g>
     </g>
    </g>
    <g id="ytick_31">
     <g id="line2d_111">
      <path clip-path="url(#p7d681ac581)" d="M 144 199.368915 
L 1036.8 199.368915 
" style="fill:none;stroke:#b0b0b0;stroke-dasharray:0.8,1.32;stroke-dashoffset:0;stroke-width:0.8;"/>
     </g>
     <g id="line2d_112">
      <g>
       <use style="stroke:#000000;stroke-width:0.6;" x="144" xlink:href="#m72702d2210" y="199.368915"/>
      </g>
     </g>
    </g>
    <g id="ytick_32">
     <g id="line2d_113">
      <path clip-path="url(#p7d681ac581)" d="M 144 183.603519 
L 1036.8 183.603519 
" style="fill:none;stroke:#b0b0b0;stroke-dasharray:0.8,1.32;stroke-dashoffset:0;stroke-width:0.8;"/>
     </g>
     <g id="line2d_114">
      <g>
       <use style="stroke:#000000;stroke-width:0.6;" x="144" xlink:href="#m72702d2210" y="183.603519"/>
      </g>
     </g>
    </g>
    <g id="ytick_33">
     <g id="line2d_115">
      <path clip-path="url(#p7d681ac581)" d="M 144 152.072727 
L 1036.8 152.072727 
" style="fill:none;stroke:#b0b0b0;stroke-dasharray:0.8,1.32;stroke-dashoffset:0;stroke-width:0.8;"/>
     </g>
     <g id="line2d_116">
      <g>
       <use style="stroke:#000000;stroke-width:0.6;" x="144" xlink:href="#m72702d2210" y="152.072727"/>
      </g>
     </g>
    </g>
    <g id="ytick_34">
     <g id="line2d_117">
      <path clip-path="url(#p7d681ac581)" d="M 144 136.307331 
L 1036.8 136.307331 
" style="fill:none;stroke:#b0b0b0;stroke-dasharray:0.8,1.32;stroke-dashoffset:0;stroke-width:0.8;"/>
     </g>
     <g id="line2d_118">
      <g>
       <use style="stroke:#000000;stroke-width:0.6;" x="144" xlink:href="#m72702d2210" y="136.307331"/>
      </g>
     </g>
    </g>
    <g id="ytick_35">
     <g id="line2d_119">
      <path clip-path="url(#p7d681ac581)" d="M 144 120.541935 
L 1036.8 120.541935 
" style="fill:none;stroke:#b0b0b0;stroke-dasharray:0.8,1.32;stroke-dashoffset:0;stroke-width:0.8;"/>
     </g>
     <g id="line2d_120">
      <g>
       <use style="stroke:#000000;stroke-width:0.6;" x="144" xlink:href="#m72702d2210" y="120.541935"/>
      </g>
     </g>
    </g>
    <g id="ytick_36">
     <g id="line2d_121">
      <path clip-path="url(#p7d681ac581)" d="M 144 104.77654 
L 1036.8 104.77654 
" style="fill:none;stroke:#b0b0b0;stroke-dasharray:0.8,1.32;stroke-dashoffset:0;stroke-width:0.8;"/>
     </g>
     <g id="line2d_122">
      <g>
       <use style="stroke:#000000;stroke-width:0.6;" x="144" xlink:href="#m72702d2210" y="104.77654"/>
      </g>
     </g>
    </g>
    <g id="text_17">
     <!-- Напряжение U, В -->
     <g transform="translate(115.017187 408.907812)rotate(-90)scale(0.1 -0.1)">
      <defs>
       <path d="M 628 4666 
L 1259 4666 
L 1259 2753 
L 3553 2753 
L 3553 4666 
L 4184 4666 
L 4184 0 
L 3553 0 
L 3553 2222 
L 1259 2222 
L 1259 0 
L 628 0 
L 628 4666 
z
" id="DejaVuSans-41d" transform="scale(0.015625)"/>
       <path d="M 2194 1759 
Q 1497 1759 1228 1600 
Q 959 1441 959 1056 
Q 959 750 1161 570 
Q 1363 391 1709 391 
Q 2188 391 2477 730 
Q 2766 1069 2766 1631 
L 2766 1759 
L 2194 1759 
z
M 3341 1997 
L 3341 0 
L 2766 0 
L 2766 531 
Q 2569 213 2275 61 
Q 1981 -91 1556 -91 
Q 1019 -91 701 211 
Q 384 513 384 1019 
Q 384 1609 779 1909 
Q 1175 2209 1959 2209 
L 2766 2209 
L 2766 2266 
Q 2766 2663 2505 2880 
Q 2244 3097 1772 3097 
Q 1472 3097 1187 3025 
Q 903 2953 641 2809 
L 641 3341 
Q 956 3463 1253 3523 
Q 1550 3584 1831 3584 
Q 2591 3584 2966 3190 
Q 3341 2797 3341 1997 
z
" id="DejaVuSans-430" transform="scale(0.015625)"/>
       <path d="M 3603 3500 
L 3603 0 
L 3025 0 
L 3025 3041 
L 1159 3041 
L 1159 0 
L 581 0 
L 581 3500 
L 3603 3500 
z
" id="DejaVuSans-43f" transform="scale(0.015625)"/>
       <path d="M 2597 3500 
L 3169 3500 
L 3169 1856 
L 4697 3500 
L 5366 3500 
L 4109 2153 
L 5547 0 
L 4931 0 
L 3753 1769 
L 3169 1141 
L 3169 0 
L 2597 0 
L 2597 1141 
L 2013 1769 
L 834 0 
L 219 0 
L 1656 2153 
L 400 3500 
L 1069 3500 
L 2597 1856 
L 2597 3500 
z
" id="DejaVuSans-436" transform="scale(0.015625)"/>
       <path d="M 581 3500 
L 1159 3500 
L 1159 2072 
L 3025 2072 
L 3025 3500 
L 3603 3500 
L 3603 0 
L 3025 0 
L 3025 1613 
L 1159 1613 
L 1159 0 
L 581 0 
L 581 3500 
z
" id="DejaVuSans-43d" transform="scale(0.015625)"/>
       <path d="M 3578 3500 
L 3578 0 
L 3006 0 
L 3006 2809 
L 1319 0 
L 581 0 
L 581 3500 
L 1153 3500 
L 1153 697 
L 2838 3500 
L 3578 3500 
z
" id="DejaVuSans-438" transform="scale(0.015625)"/>
       <path d="M 556 4666 
L 1191 4666 
L 1191 1831 
Q 1191 1081 1462 751 
Q 1734 422 2344 422 
Q 2950 422 3222 751 
Q 3494 1081 3494 1831 
L 3494 4666 
L 4128 4666 
L 4128 1753 
Q 4128 841 3676 375 
Q 3225 -91 2344 -91 
Q 1459 -91 1007 375 
Q 556 841 556 1753 
L 556 4666 
z
" id="DejaVuSans-55" transform="scale(0.015625)"/>
      </defs>
      <use xlink:href="#DejaVuSans-41d"/>
      <use x="75.195312" xlink:href="#DejaVuSans-430"/>
      <use x="136.474609" xlink:href="#DejaVuSans-43f"/>
      <use x="201.855469" xlink:href="#DejaVuSans-440"/>
      <use x="265.332031" xlink:href="#DejaVuSans-44f"/>
      <use x="325.488281" xlink:href="#DejaVuSans-436"/>
      <use x="415.576172" xlink:href="#DejaVuSans-435"/>
      <use x="477.099609" xlink:href="#DejaVuSans-43d"/>
      <use x="542.480469" xlink:href="#DejaVuSans-438"/>
      <use x="607.470703" xlink:href="#DejaVuSans-435"/>
      <use x="668.994141" xlink:href="#DejaVuSans-20"/>
      <use x="700.78125" xlink:href="#DejaVuSans-55"/>
      <use x="773.974609" xlink:href="#DejaVuSans-2c"/>
      <use x="805.761719" xlink:href="#DejaVuSans-20"/>
      <use x="837.548828" xlink:href="#DejaVuSans-412"/>
     </g>
    </g>
   </g>
   <g id="line2d_123">
    <path clip-path="url(#p7d681ac581)" d="M 144 634.703226 
L 144.887475 630.63871 
L 146.662425 626.574194 
L 150.212326 610.316129 
L 151.099801 604.219355 
L 151.987276 602.187097 
L 152.874751 594.058065 
L 153.762227 594.058065 
L 154.649702 589.993548 
L 155.537177 583.896774 
L 156.424652 581.864516 
L 157.312127 577.8 
L 158.199602 575.767742 
L 159.087078 569.670968 
L 159.974553 569.670968 
L 160.862028 563.574194 
L 161.749503 561.541935 
L 162.636978 557.477419 
L 163.524453 551.380645 
L 164.411928 551.380645 
L 165.299404 545.283871 
L 167.074354 541.219355 
L 169.736779 529.025806 
L 171.51173 524.96129 
L 173.28668 516.832258 
L 175.06163 512.767742 
L 175.949105 508.703226 
L 176.836581 502.606452 
L 177.724056 502.606452 
L 178.611531 500.574194 
L 179.499006 496.509677 
L 181.273956 492.445161 
L 183.936382 480.251613 
L 184.823857 480.251613 
L 186.598807 472.122581 
L 188.373757 468.058065 
L 189.261233 468.058065 
L 191.923658 455.864516 
L 193.698608 451.8 
L 194.586083 447.735484 
L 196.361034 447.735484 
L 197.248509 441.63871 
L 198.135984 441.63871 
L 199.023459 439.606452 
L 199.910934 433.509677 
L 200.79841 429.445161 
L 201.685885 431.477419 
L 202.57336 427.412903 
L 203.460835 425.380645 
L 204.34831 421.316129 
L 207.010736 415.219355 
L 207.898211 415.219355 
L 208.785686 409.122581 
L 209.673161 411.154839 
L 210.560636 403.025806 
L 211.448111 405.058065 
L 212.335586 400.993548 
L 213.223062 398.96129 
L 214.110537 394.896774 
L 215.885487 394.896774 
L 216.772962 392.864516 
L 217.660437 392.864516 
L 218.547913 384.735484 
L 219.435388 384.735484 
L 220.322863 382.703226 
L 221.210338 382.703226 
L 222.097813 378.63871 
L 223.872763 374.574194 
L 224.760239 374.574194 
L 225.647714 370.509677 
L 228.310139 364.412903 
L 229.197614 364.412903 
L 232.747515 356.283871 
L 233.63499 356.283871 
L 235.40994 352.219355 
L 236.297416 348.154839 
L 237.184891 350.187097 
L 238.072366 344.090323 
L 238.959841 342.058065 
L 240.734791 342.058065 
L 241.622266 337.993548 
L 243.397217 337.993548 
L 244.284692 333.929032 
L 245.172167 335.96129 
L 246.947117 327.832258 
L 247.834592 325.8 
L 248.722068 325.8 
L 249.609543 327.832258 
L 250.497018 321.735484 
L 252.271968 321.735484 
L 253.159443 319.703226 
L 254.046918 315.63871 
L 254.934394 317.670968 
L 255.821869 313.606452 
L 256.709344 313.606452 
L 257.596819 309.541935 
L 259.371769 309.541935 
L 260.259245 307.509677 
L 261.14672 307.509677 
L 262.034195 303.445161 
L 263.809145 299.380645 
L 264.69662 299.380645 
L 265.584095 297.348387 
L 266.471571 297.348387 
L 268.246521 293.283871 
L 270.908946 293.283871 
L 271.796421 289.219355 
L 272.683897 291.251613 
L 273.571372 289.219355 
L 274.458847 285.154839 
L 276.233797 281.090323 
L 277.121272 285.154839 
L 278.008748 281.090323 
L 278.896223 279.058065 
L 280.671173 279.058065 
L 281.558648 274.993548 
L 282.446123 277.025806 
L 283.333598 272.96129 
L 284.221074 274.993548 
L 285.108549 270.929032 
L 285.996024 272.96129 
L 286.883499 268.896774 
L 287.770974 266.864516 
L 288.658449 268.896774 
L 289.545924 266.864516 
L 290.4334 268.896774 
L 291.320875 262.8 
L 292.20835 264.832258 
L 293.095825 260.767742 
L 293.9833 258.735484 
L 295.75825 258.735484 
L 296.645726 256.703226 
L 298.420676 256.703226 
L 299.308151 252.63871 
L 301.083101 252.63871 
L 301.970577 254.670968 
L 302.858052 252.63871 
L 303.745527 252.63871 
L 304.633002 248.574194 
L 305.520477 248.574194 
L 306.407952 246.541935 
L 307.295427 246.541935 
L 308.182903 244.509677 
L 309.070378 244.509677 
L 309.957853 242.477419 
L 310.845328 244.509677 
L 311.732803 244.509677 
L 312.620278 240.445161 
L 313.507753 240.445161 
L 314.395229 238.412903 
L 315.282704 240.445161 
L 317.945129 234.348387 
L 318.832604 236.380645 
L 319.72008 234.348387 
L 320.607555 234.348387 
L 321.49503 232.316129 
L 322.382505 232.316129 
L 323.26998 230.283871 
L 325.04493 230.283871 
L 326.819881 226.219355 
L 327.707356 226.219355 
L 328.594831 228.251613 
L 329.482306 222.154839 
L 330.369781 224.187097 
L 331.257256 222.154839 
L 332.144732 224.187097 
L 333.032207 220.122581 
L 333.919682 224.187097 
L 334.807157 220.122581 
L 335.694632 222.154839 
L 336.582107 218.090323 
L 337.469583 220.122581 
L 338.357058 218.090323 
L 339.244533 220.122581 
L 340.132008 220.122581 
L 341.019483 214.025806 
L 341.906958 214.025806 
L 342.794433 216.058065 
L 343.681909 216.058065 
L 344.569384 211.993548 
L 345.456859 214.025806 
L 346.344334 211.993548 
L 348.119284 211.993548 
L 349.006759 209.96129 
L 350.78171 209.96129 
L 351.669185 205.896774 
L 352.55666 205.896774 
L 353.444135 207.929032 
L 355.219085 203.864516 
L 356.106561 203.864516 
L 356.994036 201.832258 
L 358.768986 205.896774 
L 359.656461 201.832258 
L 360.543936 205.896774 
L 361.431412 201.832258 
L 362.318887 203.864516 
L 364.981312 197.767742 
L 365.868787 199.8 
L 366.756262 197.767742 
L 369.418688 197.767742 
L 370.306163 195.735484 
L 372.081113 195.735484 
L 372.968588 193.703226 
L 374.743539 193.703226 
L 375.631014 195.735484 
L 376.518489 193.703226 
L 377.405964 193.703226 
L 378.293439 191.670968 
L 379.180915 191.670968 
L 380.06839 189.63871 
L 380.955865 189.63871 
L 381.84334 191.670968 
L 382.730815 189.63871 
L 384.505765 189.63871 
L 385.393241 185.574194 
L 387.168191 189.63871 
L 388.943141 185.574194 
L 389.830616 187.606452 
L 391.605567 187.606452 
L 392.493042 185.574194 
L 393.380517 187.606452 
L 394.267992 185.574194 
L 395.155467 181.509677 
L 396.042942 183.541935 
L 396.930417 181.509677 
L 397.817893 183.541935 
L 399.592843 179.477419 
L 400.480318 179.477419 
L 401.367793 183.541935 
L 402.255268 179.477419 
L 403.142744 177.445161 
L 404.030219 179.477419 
L 404.917694 179.477419 
L 405.805169 177.445161 
L 406.692644 177.445161 
L 407.580119 179.477419 
L 408.467594 177.445161 
L 409.35507 177.445161 
L 410.242545 179.477419 
L 411.13002 175.412903 
L 412.90497 175.412903 
L 413.792445 177.445161 
L 414.67992 173.380645 
L 418.229821 173.380645 
L 419.117296 171.348387 
L 420.004771 171.348387 
L 420.892247 173.380645 
L 421.779722 171.348387 
L 426.217097 171.348387 
L 427.104573 169.316129 
L 427.992048 171.348387 
L 428.879523 169.316129 
L 430.654473 169.316129 
L 431.541948 167.283871 
L 432.429423 167.283871 
L 433.316899 169.316129 
L 434.204374 167.283871 
L 436.866799 167.283871 
L 437.754274 165.251613 
L 441.304175 165.251613 
L 442.19165 163.219355 
L 443.079125 167.283871 
L 443.9666 165.251613 
L 444.854076 165.251613 
L 445.741551 163.219355 
L 447.516501 163.219355 
L 448.403976 167.283871 
L 449.291451 161.187097 
L 450.178926 165.251613 
L 451.066402 163.219355 
L 451.953877 163.219355 
L 452.841352 161.187097 
L 453.728827 163.219355 
L 454.616302 161.187097 
L 455.503777 161.187097 
L 456.391252 159.154839 
L 457.278728 163.219355 
L 458.166203 161.187097 
L 459.053678 161.187097 
L 459.941153 159.154839 
L 460.828628 161.187097 
L 461.716103 159.154839 
L 462.603579 163.219355 
L 463.491054 161.187097 
L 466.153479 161.187097 
L 467.040954 157.122581 
L 468.815905 157.122581 
L 469.70338 159.154839 
L 470.590855 157.122581 
L 471.47833 157.122581 
L 472.365805 159.154839 
L 474.140755 159.154839 
L 475.028231 155.090323 
L 475.915706 157.122581 
L 476.803181 157.122581 
L 477.690656 155.090323 
L 478.578131 155.090323 
L 479.465606 159.154839 
L 480.353082 159.154839 
L 481.240557 155.090323 
L 482.128032 153.058065 
L 483.015507 153.058065 
L 483.902982 155.090323 
L 484.790457 155.090323 
L 485.677932 157.122581 
L 486.565408 155.090323 
L 487.452883 157.122581 
L 488.340358 155.090323 
L 489.227833 157.122581 
L 490.115308 155.090323 
L 491.890258 155.090323 
L 492.777734 153.058065 
L 493.665209 153.058065 
L 494.552684 151.025806 
L 497.215109 151.025806 
L 498.102584 153.058065 
L 498.99006 151.025806 
L 499.877535 151.025806 
L 500.76501 153.058065 
L 501.652485 151.025806 
L 503.427435 151.025806 
L 504.314911 153.058065 
L 505.202386 148.993548 
L 506.089861 151.025806 
L 506.977336 148.993548 
L 507.864811 148.993548 
L 508.752286 151.025806 
L 509.639761 151.025806 
L 510.527237 148.993548 
L 511.414712 151.025806 
L 512.302187 151.025806 
L 513.189662 148.993548 
L 514.077137 148.993548 
L 514.964612 151.025806 
L 515.852087 148.993548 
L 517.627038 148.993548 
L 518.514513 151.025806 
L 519.401988 151.025806 
L 520.289463 148.993548 
L 524.726839 148.993548 
L 525.614314 146.96129 
L 526.501789 146.96129 
L 527.389264 148.993548 
L 528.27674 148.993548 
L 530.05169 144.929032 
L 530.939165 148.993548 
L 531.82664 146.96129 
L 535.376541 146.96129 
L 536.264016 144.929032 
L 537.151491 144.929032 
L 538.038966 146.96129 
L 538.926441 144.929032 
L 539.813917 146.96129 
L 540.701392 144.929032 
L 541.588867 144.929032 
L 542.476342 146.96129 
L 544.251292 146.96129 
L 545.138767 144.929032 
L 546.026243 144.929032 
L 546.913718 146.96129 
L 547.801193 146.96129 
L 549.576143 142.896774 
L 550.463618 144.929032 
L 551.351093 144.929032 
L 552.238569 146.96129 
L 554.013519 146.96129 
L 555.788469 142.896774 
L 556.675944 142.896774 
L 557.563419 144.929032 
L 558.450895 140.864516 
L 559.33837 144.929032 
L 560.225845 142.896774 
L 561.11332 142.896774 
L 562.000795 144.929032 
L 562.88827 144.929032 
L 564.663221 140.864516 
L 565.550696 144.929032 
L 566.438171 144.929032 
L 567.325646 140.864516 
L 569.100596 144.929032 
L 569.988072 142.896774 
L 570.875547 144.929032 
L 571.763022 140.864516 
L 572.650497 140.864516 
L 573.537972 142.896774 
L 574.425447 140.864516 
L 575.312922 142.896774 
L 577.087873 142.896774 
L 577.975348 140.864516 
L 578.862823 140.864516 
L 579.750298 144.929032 
L 580.637773 140.864516 
L 581.525249 138.832258 
L 582.412724 140.864516 
L 584.187674 140.864516 
L 585.075149 142.896774 
L 586.850099 142.896774 
L 587.737575 140.864516 
L 591.287475 140.864516 
L 592.17495 142.896774 
L 593.062425 142.896774 
L 593.949901 138.832258 
L 594.837376 140.864516 
L 597.499801 140.864516 
L 598.387276 138.832258 
L 600.162227 138.832258 
L 601.049702 136.8 
L 601.937177 144.929032 
L 602.824652 146.96129 
L 603.712127 153.058065 
L 604.599602 153.058065 
L 605.487078 161.187097 
L 606.374553 163.219355 
L 607.262028 169.316129 
L 608.149503 169.316129 
L 609.924453 177.445161 
L 610.811928 183.541935 
L 612.586879 187.606452 
L 613.474354 193.703226 
L 614.361829 197.767742 
L 616.136779 201.832258 
L 617.024254 207.929032 
L 617.91173 209.96129 
L 618.799205 214.025806 
L 619.68668 216.058065 
L 620.574155 222.154839 
L 621.46163 222.154839 
L 624.124056 234.348387 
L 625.011531 234.348387 
L 625.899006 240.445161 
L 627.673956 244.509677 
L 628.561431 250.606452 
L 629.448907 250.606452 
L 631.223857 258.735484 
L 632.111332 260.767742 
L 632.998807 264.832258 
L 634.773757 268.896774 
L 635.661233 274.993548 
L 637.436183 279.058065 
L 638.323658 283.122581 
L 640.986083 289.219355 
L 642.761034 297.348387 
L 643.648509 297.348387 
L 644.535984 299.380645 
L 645.423459 305.477419 
L 648.085885 311.574194 
L 648.97336 315.63871 
L 649.860835 315.63871 
L 650.74831 319.703226 
L 651.635785 319.703226 
L 652.52326 323.767742 
L 653.410736 325.8 
L 654.298211 329.864516 
L 655.185686 329.864516 
L 656.073161 331.896774 
L 656.960636 335.96129 
L 657.848111 337.993548 
L 658.735586 342.058065 
L 660.510537 346.122581 
L 661.398012 346.122581 
L 662.285487 352.219355 
L 663.172962 352.219355 
L 664.947913 360.348387 
L 665.835388 360.348387 
L 666.722863 364.412903 
L 667.610338 362.380645 
L 668.497813 364.412903 
L 669.385288 368.477419 
L 670.272763 370.509677 
L 671.160239 374.574194 
L 672.047714 376.606452 
L 672.935189 376.606452 
L 674.710139 380.670968 
L 675.597614 380.670968 
L 678.26004 386.767742 
L 679.147515 392.864516 
L 680.03499 390.832258 
L 681.80994 394.896774 
L 682.697416 398.96129 
L 683.584891 398.96129 
L 686.247316 405.058065 
L 687.134791 405.058065 
L 688.022266 407.090323 
L 688.909742 411.154839 
L 689.797217 413.187097 
L 690.684692 413.187097 
L 691.572167 417.251613 
L 693.347117 417.251613 
L 695.122068 425.380645 
L 696.009543 425.380645 
L 696.897018 429.445161 
L 697.784493 427.412903 
L 698.671968 431.477419 
L 699.559443 429.445161 
L 700.446918 433.509677 
L 702.221869 437.574194 
L 703.996819 437.574194 
L 704.884294 441.63871 
L 706.659245 441.63871 
L 707.54672 447.735484 
L 708.434195 445.703226 
L 709.32167 445.703226 
L 710.209145 451.8 
L 711.09662 451.8 
L 711.984095 453.832258 
L 713.759046 453.832258 
L 714.646521 457.896774 
L 715.533996 457.896774 
L 716.421471 459.929032 
L 717.308946 459.929032 
L 718.196421 463.993548 
L 719.083897 466.025806 
L 719.971372 463.993548 
L 720.858847 468.058065 
L 721.746322 466.025806 
L 723.521272 470.090323 
L 724.408748 470.090323 
L 726.183698 474.154839 
L 727.071173 474.154839 
L 727.958648 476.187097 
L 728.846123 480.251613 
L 729.733598 478.219355 
L 730.621074 478.219355 
L 731.508549 482.283871 
L 732.396024 482.283871 
L 733.283499 486.348387 
L 734.170974 484.316129 
L 735.058449 488.380645 
L 736.8334 488.380645 
L 737.720875 490.412903 
L 739.495825 490.412903 
L 740.3833 494.477419 
L 743.045726 494.477419 
L 743.933201 500.574194 
L 744.820676 500.574194 
L 745.708151 498.541935 
L 746.595626 498.541935 
L 747.483101 502.606452 
L 750.145527 502.606452 
L 751.033002 506.670968 
L 751.920477 506.670968 
L 752.807952 508.703226 
L 753.695427 512.767742 
L 754.582903 510.735484 
L 755.470378 510.735484 
L 756.357853 512.767742 
L 757.245328 512.767742 
L 758.132803 514.8 
L 759.020278 514.8 
L 759.907753 516.832258 
L 760.795229 516.832258 
L 761.682704 520.896774 
L 763.457654 520.896774 
L 764.345129 518.864516 
L 765.232604 522.929032 
L 766.12008 522.929032 
L 767.007555 524.96129 
L 767.89503 524.96129 
L 768.782505 526.993548 
L 770.557455 526.993548 
L 772.332406 531.058065 
L 776.769781 531.058065 
L 777.657256 533.090323 
L 778.544732 537.154839 
L 779.432207 535.122581 
L 781.207157 539.187097 
L 782.094632 539.187097 
L 782.982107 541.219355 
L 785.644533 541.219355 
L 786.532008 543.251613 
L 789.194433 543.251613 
L 790.081909 545.283871 
L 790.969384 545.283871 
L 791.856859 547.316129 
L 792.744334 547.316129 
L 793.631809 549.348387 
L 794.519284 549.348387 
L 795.406759 551.380645 
L 797.18171 551.380645 
L 798.069185 553.412903 
L 798.95666 553.412903 
L 799.844135 551.380645 
L 800.73161 551.380645 
L 802.506561 555.445161 
L 805.168986 555.445161 
L 806.056461 559.509677 
L 806.943936 557.477419 
L 807.831412 559.509677 
L 808.718887 559.509677 
L 809.606362 561.541935 
L 811.381312 561.541935 
L 812.268787 559.509677 
L 813.156262 561.541935 
L 814.043738 561.541935 
L 814.931213 565.606452 
L 815.818688 563.574194 
L 816.706163 563.574194 
L 817.593638 565.606452 
L 818.481113 563.574194 
L 819.368588 567.63871 
L 820.256064 569.670968 
L 821.143539 567.63871 
L 822.031014 567.63871 
L 822.918489 569.670968 
L 823.805964 567.63871 
L 824.693439 571.703226 
L 825.580915 569.670968 
L 826.46839 569.670968 
L 828.24334 573.735484 
L 829.130815 571.703226 
L 830.01829 573.735484 
L 830.905765 571.703226 
L 831.793241 575.767742 
L 832.680716 573.735484 
L 834.455666 573.735484 
L 835.343141 577.8 
L 836.230616 575.767742 
L 837.118091 577.8 
L 838.005567 575.767742 
L 838.893042 577.8 
L 839.780517 577.8 
L 840.667992 579.832258 
L 845.105368 579.832258 
L 846.880318 583.896774 
L 847.767793 583.896774 
L 848.655268 581.864516 
L 850.430219 585.929032 
L 853.092644 585.929032 
L 853.980119 583.896774 
L 854.867594 585.929032 
L 855.75507 585.929032 
L 856.642545 587.96129 
L 857.53002 585.929032 
L 859.30497 589.993548 
L 860.192445 587.96129 
L 861.967396 587.96129 
L 863.742346 592.025806 
L 864.629821 589.993548 
L 865.517296 594.058065 
L 866.404771 592.025806 
L 869.067197 592.025806 
L 869.954672 594.058065 
L 870.842147 592.025806 
L 871.729622 594.058065 
L 873.504573 594.058065 
L 874.392048 592.025806 
L 875.279523 592.025806 
L 876.166998 596.090323 
L 877.054473 596.090323 
L 877.941948 598.122581 
L 878.829423 596.090323 
L 879.716899 596.090323 
L 881.491849 600.154839 
L 882.379324 598.122581 
L 884.154274 598.122581 
L 885.04175 596.090323 
L 885.929225 600.154839 
L 886.8167 598.122581 
L 887.704175 600.154839 
L 888.59165 600.154839 
L 889.479125 602.187097 
L 890.3666 600.154839 
L 891.254076 600.154839 
L 892.141551 602.187097 
L 893.029026 600.154839 
L 893.916501 600.154839 
L 894.803976 602.187097 
L 897.466402 602.187097 
L 899.241352 606.251613 
L 900.128827 604.219355 
L 901.016302 606.251613 
L 901.903777 604.219355 
L 902.791252 606.251613 
L 903.678728 604.219355 
L 904.566203 604.219355 
L 905.453678 606.251613 
L 906.341153 604.219355 
L 908.116103 604.219355 
L 909.003579 606.251613 
L 909.891054 606.251613 
L 910.778529 608.283871 
L 913.440954 608.283871 
L 914.328429 606.251613 
L 915.215905 610.316129 
L 916.990855 610.316129 
L 917.87833 608.283871 
L 920.540755 608.283871 
L 921.428231 612.348387 
L 922.315706 608.283871 
L 923.203181 612.348387 
L 924.978131 608.283871 
L 925.865606 612.348387 
L 926.753082 610.316129 
L 931.190457 610.316129 
L 932.077932 612.348387 
L 933.852883 612.348387 
L 935.627833 616.412903 
L 937.402783 612.348387 
L 939.177734 612.348387 
L 940.952684 616.412903 
L 941.840159 614.380645 
L 942.727634 616.412903 
L 943.615109 616.412903 
L 944.502584 614.380645 
L 945.39006 618.445161 
L 946.277535 614.380645 
L 947.16501 618.445161 
L 948.052485 618.445161 
L 948.93996 616.412903 
L 949.827435 616.412903 
L 950.714911 618.445161 
L 951.602386 616.412903 
L 954.264811 616.412903 
L 955.152286 618.445161 
L 956.039761 618.445161 
L 956.927237 616.412903 
L 957.814712 620.477419 
L 958.702187 618.445161 
L 961.364612 618.445161 
L 962.252087 620.477419 
L 963.139563 618.445161 
L 966.689463 618.445161 
L 967.576938 620.477419 
L 968.464414 620.477419 
L 969.351889 618.445161 
L 970.239364 618.445161 
L 971.126839 622.509677 
L 972.014314 620.477419 
L 974.67674 620.477419 
L 975.564215 622.509677 
L 976.45169 620.477419 
L 977.339165 622.509677 
L 979.114115 622.509677 
L 980.00159 620.477419 
L 980.889066 620.477419 
L 981.776541 624.541935 
L 983.551491 624.541935 
L 984.438966 620.477419 
L 985.326441 620.477419 
L 986.213917 622.509677 
L 987.101392 626.574194 
L 987.988867 624.541935 
L 989.763817 624.541935 
L 990.651292 622.509677 
L 991.538767 624.541935 
L 992.426243 622.509677 
L 994.201193 626.574194 
L 995.088668 626.574194 
L 995.976143 624.541935 
L 996.863618 624.541935 
L 997.751093 626.574194 
L 998.638569 624.541935 
L 1002.188469 624.541935 
L 1003.075944 626.574194 
L 1003.963419 624.541935 
L 1004.850895 626.574194 
L 1005.73837 624.541935 
L 1008.400795 624.541935 
L 1009.28827 626.574194 
L 1011.063221 626.574194 
L 1011.950696 624.541935 
L 1012.838171 628.606452 
L 1013.725646 626.574194 
L 1014.613121 626.574194 
L 1015.500596 624.541935 
L 1016.388072 628.606452 
L 1018.163022 628.606452 
L 1019.050497 626.574194 
L 1023.487873 626.574194 
L 1024.375348 628.606452 
L 1026.150298 628.606452 
L 1027.037773 626.574194 
L 1028.812724 626.574194 
L 1029.700199 628.606452 
L 1031.475149 628.606452 
L 1032.362624 626.574194 
L 1033.250099 628.606452 
L 1034.137575 626.574194 
L 1035.02505 628.606452 
L 1035.912525 626.574194 
L 1036.8 630.63871 
L 1036.8 630.63871 
" style="fill:none;stroke:#0000ff;stroke-dasharray:2.22,0.96;stroke-dashoffset:0;stroke-width:0.6;"/>
    <defs>
     <path d="M 0 2.5 
C 0.663008 2.5 1.29895 2.236584 1.767767 1.767767 
C 2.236584 1.29895 2.5 0.663008 2.5 0 
C 2.5 -0.663008 2.236584 -1.29895 1.767767 -1.767767 
C 1.29895 -2.236584 0.663008 -2.5 0 -2.5 
C -0.663008 -2.5 -1.29895 -2.236584 -1.767767 -1.767767 
C -2.236584 -1.29895 -2.5 -0.663008 -2.5 0 
C -2.5 0.663008 -2.236584 1.29895 -1.767767 1.767767 
C -1.29895 2.236584 -0.663008 2.5 0 2.5 
z
" id="m626ce46274" style="stroke:#0000ff;"/>
    </defs>
    <g clip-path="url(#p7d681ac581)">
     <use style="fill:#0000ff;stroke:#0000ff;" x="144" xlink:href="#m626ce46274" y="634.703226"/>
     <use style="fill:#0000ff;stroke:#0000ff;" x="199.023459" xlink:href="#m626ce46274" y="439.606452"/>
     <use style="fill:#0000ff;stroke:#0000ff;" x="272.683897" xlink:href="#m626ce46274" y="291.251613"/>
     <use style="fill:#0000ff;stroke:#0000ff;" x="352.55666" xlink:href="#m626ce46274" y="205.896774"/>
     <use style="fill:#0000ff;stroke:#0000ff;" x="450.178926" xlink:href="#m626ce46274" y="165.251613"/>
     <use style="fill:#0000ff;stroke:#0000ff;" x="554.900994" xlink:href="#m626ce46274" y="144.929032"/>
     <use style="fill:#0000ff;stroke:#0000ff;" x="625.899006" xlink:href="#m626ce46274" y="240.445161"/>
     <use style="fill:#0000ff;stroke:#0000ff;" x="694.234592" xlink:href="#m626ce46274" y="421.316129"/>
     <use style="fill:#0000ff;stroke:#0000ff;" x="781.207157" xlink:href="#m626ce46274" y="539.187097"/>
     <use style="fill:#0000ff;stroke:#0000ff;" x="885.04175" xlink:href="#m626ce46274" y="596.090323"/>
     <use style="fill:#0000ff;stroke:#0000ff;" x="986.213917" xlink:href="#m626ce46274" y="622.509677"/>
    </g>
   </g>
   <g id="patch_3">
    <path d="M 144 640.8 
L 144 86.4 
" style="fill:none;stroke:#000000;stroke-linecap:square;stroke-linejoin:miter;stroke-width:0.8;"/>
   </g>
   <g id="patch_4">
    <path d="M 1036.8 640.8 
L 1036.8 86.4 
" style="fill:none;stroke:#000000;stroke-linecap:square;stroke-linejoin:miter;stroke-width:0.8;"/>
   </g>
   <g id="patch_5">
    <path d="M 144 640.8 
L 1036.8 640.8 
" style="fill:none;stroke:#000000;stroke-linecap:square;stroke-linejoin:miter;stroke-width:0.8;"/>
   </g>
   <g id="patch_6">
    <path d="M 144 86.4 
L 1036.8 86.4 
" style="fill:none;stroke:#000000;stroke-linecap:square;stroke-linejoin:miter;stroke-width:0.8;"/>
   </g>
   <g id="text_18">
    <!-- Время заряда: 6.32 с -->
    <g transform="translate(203.976596 192.80875)scale(0.2 -0.2)">
     <defs>
      <path d="M 2206 1888 
Q 2594 1813 2809 1584 
Q 3025 1356 3025 1019 
Q 3025 478 2622 193 
Q 2219 -91 1475 -91 
Q 1225 -91 961 -47 
Q 697 -3 416 84 
L 416 619 
Q 638 503 903 445 
Q 1169 388 1459 388 
Q 1931 388 2195 563 
Q 2459 738 2459 1019 
Q 2459 1294 2225 1461 
Q 1991 1628 1563 1628 
L 1100 1628 
L 1100 2103 
L 1584 2103 
Q 1947 2103 2158 2242 
Q 2369 2381 2369 2600 
Q 2369 2800 2151 2944 
Q 1934 3088 1563 3088 
Q 1341 3088 1089 3047 
Q 838 3006 534 2916 
L 534 3438 
Q 841 3513 1106 3550 
Q 1372 3588 1609 3588 
Q 2222 3588 2576 3342 
Q 2931 3097 2931 2656 
Q 2931 2366 2743 2164 
Q 2556 1963 2206 1888 
z
" id="DejaVuSans-437" transform="scale(0.015625)"/>
      <path d="M 1384 459 
L 3053 459 
L 3053 3041 
L 1844 3041 
L 1844 2603 
Q 1844 1316 1475 628 
L 1384 459 
z
M 550 459 
Q 834 584 959 850 
Q 1266 1509 1266 2838 
L 1266 3500 
L 3631 3500 
L 3631 459 
L 4091 459 
L 4091 -884 
L 3631 -884 
L 3631 0 
L 794 0 
L 794 -884 
L 334 -884 
L 334 459 
L 550 459 
z
" id="DejaVuSans-434" transform="scale(0.015625)"/>
      <path d="M 750 794 
L 1409 794 
L 1409 0 
L 750 0 
L 750 794 
z
M 750 3309 
L 1409 3309 
L 1409 2516 
L 750 2516 
L 750 3309 
z
" id="DejaVuSans-3a" transform="scale(0.015625)"/>
     </defs>
     <use xlink:href="#DejaVuSans-412"/>
     <use x="68.603516" xlink:href="#DejaVuSans-440"/>
     <use x="132.080078" xlink:href="#DejaVuSans-435"/>
     <use x="193.603516" xlink:href="#DejaVuSans-43c"/>
     <use x="269.042969" xlink:href="#DejaVuSans-44f"/>
     <use x="329.199219" xlink:href="#DejaVuSans-20"/>
     <use x="360.986328" xlink:href="#DejaVuSans-437"/>
     <use x="414.160156" xlink:href="#DejaVuSans-430"/>
     <use x="475.439453" xlink:href="#DejaVuSans-440"/>
     <use x="538.916016" xlink:href="#DejaVuSans-44f"/>
     <use x="599.072266" xlink:href="#DejaVuSans-434"/>
     <use x="668.212891" xlink:href="#DejaVuSans-430"/>
     <use x="729.492188" xlink:href="#DejaVuSans-3a"/>
     <use x="763.183594" xlink:href="#DejaVuSans-20"/>
     <use x="794.970703" xlink:href="#DejaVuSans-36"/>
     <use x="858.59375" xlink:href="#DejaVuSans-2e"/>
     <use x="890.380859" xlink:href="#DejaVuSans-33"/>
     <use x="954.003906" xlink:href="#DejaVuSans-32"/>
     <use x="1017.626953" xlink:href="#DejaVuSans-20"/>
     <use x="1049.414062" xlink:href="#DejaVuSans-441"/>
    </g>
    <!--  -->
    <g transform="translate(203.976596 215.204375)scale(0.2 -0.2)"/>
    <!-- Время разряда: 6.03 с -->
    <g transform="translate(203.976596 237.6)scale(0.2 -0.2)">
     <use xlink:href="#DejaVuSans-412"/>
     <use x="68.603516" xlink:href="#DejaVuSans-440"/>
     <use x="132.080078" xlink:href="#DejaVuSans-435"/>
     <use x="193.603516" xlink:href="#DejaVuSans-43c"/>
     <use x="269.042969" xlink:href="#DejaVuSans-44f"/>
     <use x="329.199219" xlink:href="#DejaVuSans-20"/>
     <use x="360.986328" xlink:href="#DejaVuSans-440"/>
     <use x="424.462891" xlink:href="#DejaVuSans-430"/>
     <use x="485.742188" xlink:href="#DejaVuSans-437"/>
     <use x="538.916016" xlink:href="#DejaVuSans-440"/>
     <use x="602.392578" xlink:href="#DejaVuSans-44f"/>
     <use x="662.548828" xlink:href="#DejaVuSans-434"/>
     <use x="731.689453" xlink:href="#DejaVuSans-430"/>
     <use x="792.96875" xlink:href="#DejaVuSans-3a"/>
     <use x="826.660156" xlink:href="#DejaVuSans-20"/>
     <use x="858.447266" xlink:href="#DejaVuSans-36"/>
     <use x="922.070312" xlink:href="#DejaVuSans-2e"/>
     <use x="953.857422" xlink:href="#DejaVuSans-30"/>
     <use x="1017.480469" xlink:href="#DejaVuSans-33"/>
     <use x="1081.103516" xlink:href="#DejaVuSans-20"/>
     <use x="1112.890625" xlink:href="#DejaVuSans-441"/>
    </g>
   </g>
   <g id="text_19">
    <!-- Процесс зарядки-разрядки конденсатора -->
    <g transform="translate(457.722188 80.4)scale(0.12 -0.12)">
     <defs>
      <path d="M 4184 4666 
L 4184 0 
L 3553 0 
L 3553 4134 
L 1259 4134 
L 1259 0 
L 628 0 
L 628 4666 
L 4184 4666 
z
" id="DejaVuSans-41f" transform="scale(0.015625)"/>
      <path d="M 1959 3097 
Q 1497 3097 1228 2736 
Q 959 2375 959 1747 
Q 959 1119 1226 758 
Q 1494 397 1959 397 
Q 2419 397 2687 759 
Q 2956 1122 2956 1747 
Q 2956 2369 2687 2733 
Q 2419 3097 1959 3097 
z
M 1959 3584 
Q 2709 3584 3137 3096 
Q 3566 2609 3566 1747 
Q 3566 888 3137 398 
Q 2709 -91 1959 -91 
Q 1206 -91 779 398 
Q 353 888 353 1747 
Q 353 2609 779 3096 
Q 1206 3584 1959 3584 
z
" id="DejaVuSans-43e" transform="scale(0.015625)"/>
      <path d="M 3603 0 
L 581 0 
L 581 3500 
L 1159 3500 
L 1159 459 
L 3025 459 
L 3025 3500 
L 3603 3500 
L 3603 459 
L 4063 459 
L 4063 -884 
L 3603 -884 
L 3603 0 
z
" id="DejaVuSans-446" transform="scale(0.015625)"/>
      <path d="M 581 3500 
L 1153 3500 
L 1153 1856 
L 2775 3500 
L 3481 3500 
L 2144 2147 
L 3653 0 
L 3009 0 
L 1769 1766 
L 1153 1141 
L 1153 0 
L 581 0 
L 581 3500 
z
" id="DejaVuSans-43a" transform="scale(0.015625)"/>
      <path d="M 313 2009 
L 1997 2009 
L 1997 1497 
L 313 1497 
L 313 2009 
z
" id="DejaVuSans-2d" transform="scale(0.015625)"/>
      <path d="M 188 3500 
L 3541 3500 
L 3541 3041 
L 2147 3041 
L 2147 0 
L 1581 0 
L 1581 3041 
L 188 3041 
L 188 3500 
z
" id="DejaVuSans-442" transform="scale(0.015625)"/>
     </defs>
     <use xlink:href="#DejaVuSans-41f"/>
     <use x="75.195312" xlink:href="#DejaVuSans-440"/>
     <use x="138.671875" xlink:href="#DejaVuSans-43e"/>
     <use x="199.853516" xlink:href="#DejaVuSans-446"/>
     <use x="267.919922" xlink:href="#DejaVuSans-435"/>
     <use x="329.443359" xlink:href="#DejaVuSans-441"/>
     <use x="384.423828" xlink:href="#DejaVuSans-441"/>
     <use x="439.404297" xlink:href="#DejaVuSans-20"/>
     <use x="471.191406" xlink:href="#DejaVuSans-437"/>
     <use x="524.365234" xlink:href="#DejaVuSans-430"/>
     <use x="585.644531" xlink:href="#DejaVuSans-440"/>
     <use x="649.121094" xlink:href="#DejaVuSans-44f"/>
     <use x="709.277344" xlink:href="#DejaVuSans-434"/>
     <use x="778.417969" xlink:href="#DejaVuSans-43a"/>
     <use x="838.818359" xlink:href="#DejaVuSans-438"/>
     <use x="903.808594" xlink:href="#DejaVuSans-2d"/>
     <use x="939.892578" xlink:href="#DejaVuSans-440"/>
     <use x="1003.369141" xlink:href="#DejaVuSans-430"/>
     <use x="1064.648438" xlink:href="#DejaVuSans-437"/>
     <use x="1117.822266" xlink:href="#DejaVuSans-440"/>
     <use x="1181.298828" xlink:href="#DejaVuSans-44f"/>
     <use x="1241.455078" xlink:href="#DejaVuSans-434"/>
     <use x="1310.595703" xlink:href="#DejaVuSans-43a"/>
     <use x="1370.996094" xlink:href="#DejaVuSans-438"/>
     <use x="1435.986328" xlink:href="#DejaVuSans-20"/>
     <use x="1467.773438" xlink:href="#DejaVuSans-43a"/>
     <use x="1528.173828" xlink:href="#DejaVuSans-43e"/>
     <use x="1589.355469" xlink:href="#DejaVuSans-43d"/>
     <use x="1654.736328" xlink:href="#DejaVuSans-434"/>
     <use x="1723.876953" xlink:href="#DejaVuSans-435"/>
     <use x="1785.400391" xlink:href="#DejaVuSans-43d"/>
     <use x="1850.78125" xlink:href="#DejaVuSans-441"/>
     <use x="1905.761719" xlink:href="#DejaVuSans-430"/>
     <use x="1967.041016" xlink:href="#DejaVuSans-442"/>
     <use x="2025.292969" xlink:href="#DejaVuSans-43e"/>
     <use x="2086.474609" xlink:href="#DejaVuSans-440"/>
     <use x="2149.951172" xlink:href="#DejaVuSans-430"/>
    </g>
   </g>
   <g id="legend_1">
    <g id="patch_7">
     <path d="M 964.015625 109.078125 
L 1029.8 109.078125 
Q 1031.8 109.078125 1031.8 107.078125 
L 1031.8 93.4 
Q 1031.8 91.4 1029.8 91.4 
L 964.015625 91.4 
Q 962.015625 91.4 962.015625 93.4 
L 962.015625 107.078125 
Q 962.015625 109.078125 964.015625 109.078125 
z
" style="fill:#ffffff;opacity:0.8;stroke:#cccccc;stroke-linejoin:miter;"/>
    </g>
    <g id="line2d_124">
     <path d="M 966.015625 99.498438 
L 986.015625 99.498438 
" style="fill:none;stroke:#0000ff;stroke-dasharray:2.22,0.96;stroke-dashoffset:0;stroke-width:0.6;"/>
    </g>
    <g id="line2d_125">
     <g>
      <use style="fill:#0000ff;stroke:#0000ff;" x="976.015625" xlink:href="#m626ce46274" y="99.498438"/>
     </g>
    </g>
    <g id="text_20">
     <!-- V=V(t) -->
     <g transform="translate(994.015625 102.998438)scale(0.1 -0.1)">
      <defs>
       <path d="M 1831 0 
L 50 4666 
L 709 4666 
L 2188 738 
L 3669 4666 
L 4325 4666 
L 2547 0 
L 1831 0 
z
" id="DejaVuSans-56" transform="scale(0.015625)"/>
       <path d="M 678 2906 
L 4684 2906 
L 4684 2381 
L 678 2381 
L 678 2906 
z
M 678 1631 
L 4684 1631 
L 4684 1100 
L 678 1100 
L 678 1631 
z
" id="DejaVuSans-3d" transform="scale(0.015625)"/>
       <path d="M 1984 4856 
Q 1566 4138 1362 3434 
Q 1159 2731 1159 2009 
Q 1159 1288 1364 580 
Q 1569 -128 1984 -844 
L 1484 -844 
Q 1016 -109 783 600 
Q 550 1309 550 2009 
Q 550 2706 781 3412 
Q 1013 4119 1484 4856 
L 1984 4856 
z
" id="DejaVuSans-28" transform="scale(0.015625)"/>
       <path d="M 513 4856 
L 1013 4856 
Q 1481 4119 1714 3412 
Q 1947 2706 1947 2009 
Q 1947 1309 1714 600 
Q 1481 -109 1013 -844 
L 513 -844 
Q 928 -128 1133 580 
Q 1338 1288 1338 2009 
Q 1338 2731 1133 3434 
Q 928 4138 513 4856 
z
" id="DejaVuSans-29" transform="scale(0.015625)"/>
      </defs>
      <use xlink:href="#DejaVuSans-56"/>
      <use x="68.408203" xlink:href="#DejaVuSans-3d"/>
      <use x="152.197266" xlink:href="#DejaVuSans-56"/>
      <use x="220.605469" xlink:href="#DejaVuSans-28"/>
      <use x="259.619141" xlink:href="#DejaVuSans-74"/>
      <use x="298.828125" xlink:href="#DejaVuSans-29"/>
     </g>
    </g>
   </g>
  </g>
 </g>
 <defs>
  <clipPath id="p7d681ac581">
   <rect height="554.4" width="892.8" x="144" y="86.4"/>
  </clipPath>
 </defs>
</svg>
